<svg width="266" height="45" viewBox="0 0 266 45" fill="none" xmlns="http://www.w3.org/2000/svg">
<path d="M77.7689 2L0 2.48255C9.35275 8.43436 23.6972 20.7723 41.3881 22.5096C59.079 24.2468 73.0132 9.56038 77.7689 2Z" fill="url(#paint0_linear_1131_96)"/>
<path d="M26.2311 45L104 44.5175C94.6473 38.5656 80.3028 26.2277 62.6119 24.4904C44.921 22.7531 30.9868 37.4397 26.2311 45Z" fill="url(#paint1_linear_1131_96)"/>
<path d="M156 2.00019H165.6V44.0002H158.4L142.2 21.2002V44.0002H132.6V2.00019H139.8L156 24.8002V2.00019Z" fill="url(#paint2_linear_1131_96)"/>
<path d="M180.775 9.80019C179.735 10.8402 178.475 11.3602 176.995 11.3602C175.515 11.3602 174.235 10.8402 173.155 9.80019C172.115 8.7202 171.595 7.4402 171.595 5.9602C171.595 4.4802 172.115 3.2202 173.155 2.18019C174.235 1.10019 175.515 0.560194 176.995 0.560194C178.475 0.560194 179.735 1.10019 180.775 2.18019C181.855 3.2202 182.395 4.4802 182.395 5.9602C182.395 7.4402 181.855 8.7202 180.775 9.80019ZM172.495 44.0002V14.0002H181.495V44.0002H172.495Z" fill="url(#paint3_linear_1131_96)"/>
<path d="M216.581 44.0002H206.261L200.681 36.0802L195.101 44.0002H184.781L195.521 28.7602L185.141 14.0002H195.461L200.681 21.4402L205.901 14.0002H216.221L205.841 28.7602L216.581 44.0002Z" fill="url(#paint4_linear_1131_96)"/>
<path d="M219.897 44.0002V0.200195H228.897V44.0002H219.897Z" fill="url(#paint5_linear_1131_96)"/>
<path d="M243.523 32.6002C244.563 35.4002 246.963 36.8002 250.723 36.8002C253.163 36.8002 255.083 36.0402 256.483 34.5202L263.683 38.6602C260.723 42.7802 256.363 44.8402 250.603 44.8402C245.563 44.8402 241.523 43.3402 238.483 40.3402C235.483 37.3402 233.983 33.5602 233.983 29.0002C233.983 24.4802 235.463 20.7202 238.423 17.7202C241.423 14.6802 245.263 13.1602 249.943 13.1602C254.303 13.1602 257.923 14.6802 260.803 17.7202C263.723 20.7202 265.183 24.4802 265.183 29.0002C265.183 30.2802 265.063 31.4802 264.823 32.6002H243.523ZM243.343 25.8802H256.243C255.363 22.7202 253.243 21.1402 249.883 21.1402C246.403 21.1402 244.223 22.7202 243.343 25.8802Z" fill="url(#paint6_linear_1131_96)"/>
<defs>
<linearGradient id="paint0_linear_1131_96" x1="0" y1="2" x2="104.426" y2="43.9399" gradientUnits="userSpaceOnUse">
<stop stop-color="#3763FF"/>
<stop offset="0.927083" stop-color="#CC00FF"/>
</linearGradient>
<linearGradient id="paint1_linear_1131_96" x1="0" y1="2" x2="104.426" y2="43.9399" gradientUnits="userSpaceOnUse">
<stop stop-color="#3763FF"/>
<stop offset="0.927083" stop-color="#CC00FF"/>
</linearGradient>
<linearGradient id="paint2_linear_1131_96" x1="265" y1="5.53963e-06" x2="133" y2="45" gradientUnits="userSpaceOnUse">
<stop stop-color="#3C60FF"/>
<stop offset="1" stop-color="#BD02FF"/>
</linearGradient>
<linearGradient id="paint3_linear_1131_96" x1="265" y1="5.53963e-06" x2="133" y2="45" gradientUnits="userSpaceOnUse">
<stop stop-color="#3C60FF"/>
<stop offset="1" stop-color="#BD02FF"/>
</linearGradient>
<linearGradient id="paint4_linear_1131_96" x1="265" y1="5.53963e-06" x2="133" y2="45" gradientUnits="userSpaceOnUse">
<stop stop-color="#3C60FF"/>
<stop offset="1" stop-color="#BD02FF"/>
</linearGradient>
<linearGradient id="paint5_linear_1131_96" x1="265" y1="5.53963e-06" x2="133" y2="45" gradientUnits="userSpaceOnUse">
<stop stop-color="#3C60FF"/>
<stop offset="1" stop-color="#BD02FF"/>
</linearGradient>
<linearGradient id="paint6_linear_1131_96" x1="265" y1="5.53963e-06" x2="133" y2="45" gradientUnits="userSpaceOnUse">
<stop stop-color="#3C60FF"/>
<stop offset="1" stop-color="#BD02FF"/>
</linearGradient>
</defs>
</svg>
