<svg width="251" height="45" viewBox="0 0 251 45" fill="none" xmlns="http://www.w3.org/2000/svg">
<g clip-path="url(#clip0_1131_96)">
<path d="M76.2733 2H0C9.17289 7.81339 23.2415 20.3357 40.5922 22.0326C57.9429 23.7295 71.6091 9.38455 76.2733 2Z" fill="url(#paint0_linear_1131_96)"/>
<path d="M25.7267 44H102C92.8271 38.1865 78.7585 25.6643 61.4078 23.9674C44.0571 22.2705 30.3909 36.6155 25.7267 44Z" fill="url(#paint1_linear_1131_96)"/>
<path d="M142 2.00019H151.6V44.0002H144.4L128.2 21.2002V44.0002H118.6V2.00019H125.8L142 24.8002V2.00019Z" fill="url(#paint2_linear_1131_96)"/>
<path d="M166.775 9.80019C165.735 10.8402 164.475 11.3602 162.995 11.3602C161.515 11.3602 160.235 10.8402 159.155 9.80019C158.115 8.7202 157.595 7.4402 157.595 5.9602C157.595 4.4802 158.115 3.2202 159.155 2.18019C160.235 1.10019 161.515 0.560194 162.995 0.560194C164.475 0.560194 165.735 1.10019 166.775 2.18019C167.855 3.2202 168.395 4.4802 168.395 5.9602C168.395 7.4402 167.855 8.7202 166.775 9.80019ZM158.495 44.0002V14.0002H167.495V44.0002H158.495Z" fill="url(#paint3_linear_1131_96)"/>
<path d="M202.581 44.0002H192.261L186.681 36.0802L181.101 44.0002H170.781L181.521 28.7602L171.141 14.0002H181.461L186.681 21.4402L191.901 14.0002H202.221L191.841 28.7602L202.581 44.0002Z" fill="url(#paint4_linear_1131_96)"/>
<path d="M205.897 44.0002V0.200195H214.897V44.0002H205.897Z" fill="url(#paint5_linear_1131_96)"/>
<path d="M229.523 32.6002C230.563 35.4002 232.963 36.8002 236.723 36.8002C239.163 36.8002 241.083 36.0402 242.483 34.5202L249.683 38.6602C246.723 42.7802 242.363 44.8402 236.603 44.8402C231.563 44.8402 227.523 43.3402 224.483 40.3402C221.483 37.3402 219.983 33.5602 219.983 29.0002C219.983 24.4802 221.463 20.7202 224.423 17.7202C227.423 14.6802 231.263 13.1602 235.943 13.1602C240.303 13.1602 243.923 14.6802 246.803 17.7202C249.723 20.7202 251.183 24.4802 251.183 29.0002C251.183 30.2802 251.063 31.4802 250.823 32.6002H229.523ZM229.343 25.8802H242.243C241.363 22.7202 239.243 21.1402 235.883 21.1402C232.403 21.1402 230.223 22.7202 229.343 25.8802Z" fill="url(#paint6_linear_1131_96)"/>
</g>
<defs>
<linearGradient id="paint0_linear_1131_96" x1="0" y1="2" x2="102.3" y2="43.2556" gradientUnits="userSpaceOnUse">
<stop stop-color="#3763FF"/>
<stop offset="0.927083" stop-color="#CC00FF"/>
</linearGradient>
<linearGradient id="paint1_linear_1131_96" x1="0" y1="2" x2="102.3" y2="43.2556" gradientUnits="userSpaceOnUse">
<stop stop-color="#3763FF"/>
<stop offset="0.927083" stop-color="#CC00FF"/>
</linearGradient>
<linearGradient id="paint2_linear_1131_96" x1="251" y1="5.53963e-06" x2="119" y2="45" gradientUnits="userSpaceOnUse">
<stop stop-color="#3C60FF"/>
<stop offset="1" stop-color="#BD02FF"/>
</linearGradient>
<linearGradient id="paint3_linear_1131_96" x1="251" y1="5.53963e-06" x2="119" y2="45" gradientUnits="userSpaceOnUse">
<stop stop-color="#3C60FF"/>
<stop offset="1" stop-color="#BD02FF"/>
</linearGradient>
<linearGradient id="paint4_linear_1131_96" x1="251" y1="5.53963e-06" x2="119" y2="45" gradientUnits="userSpaceOnUse">
<stop stop-color="#3C60FF"/>
<stop offset="1" stop-color="#BD02FF"/>
</linearGradient>
<linearGradient id="paint5_linear_1131_96" x1="251" y1="5.53963e-06" x2="119" y2="45" gradientUnits="userSpaceOnUse">
<stop stop-color="#3C60FF"/>
<stop offset="1" stop-color="#BD02FF"/>
</linearGradient>
<linearGradient id="paint6_linear_1131_96" x1="251" y1="5.53963e-06" x2="119" y2="45" gradientUnits="userSpaceOnUse">
<stop stop-color="#3C60FF"/>
<stop offset="1" stop-color="#BD02FF"/>
</linearGradient>
<clipPath id="clip0_1131_96">
<rect width="251" height="45" fill="white"/>
</clipPath>
</defs>
</svg>
